# xmcd
#
# Track frame offsets: 
#        150
#        14127
#        31894
#        45882
#        63516
#        79137
#        91233
#        106234
#        120301
#        135700
#
# Disc length: 1984 seconds
#
# Revision: 0
# Processed by: cddbd v1.5.2PL0 Copyright (c) Steve Scherf et al.
# Submitted via: ExactAudioCopy v0.95b4
#
DISCID=7607be0a
DTITLE=Distillery Dave - Contemporary Country Classics Volume 4
DYEAR=2008
DGENRE=Country
TTITLE0=Today My World Slipped Away
TTITLE1=Startin' With Me
TTITLE2=Statue Of A Fool
TTITLE3=Too Busy Being In Love
TTITLE4=Yard Sale
TTITLE5=What's Made Milwaukee Famous
TTITLE6=Almost Persuaded
TTITLE7=A Good Year For The Roses
TTITLE8=Who Says You Can't Have It All
TTITLE9=It Would Be You
EXTD=
EXTT0=
EXTT1=
EXTT2=
EXTT3=
EXTT4=
EXTT5=
EXTT6=
EXTT7=
EXTT8=
EXTT9=
PLAYORDER=
